<mxfile host="app.diagrams.net" modified="2020-12-11T12:20:15.140Z" agent="5.0 (Windows)" etag="9qeKzvx-deubjTCekEx7" version="13.11.0" type="github">
  <diagram id="6sXWkbplTSW0TdqBarLm" name="Page-1">
    <mxGraphModel dx="2294" dy="814" grid="1" gridSize="10" guides="1" tooltips="1" connect="1" arrows="1" fold="1" page="1" pageScale="1" pageWidth="827" pageHeight="1169" math="0" shadow="0">
      <root>
        <mxCell id="0" />
        <mxCell id="1" parent="0" />
        <mxCell id="5iN4Q8ihnHbR1NjWREBR-65" value="" style="rounded=0;whiteSpace=wrap;html=1;strokeColor=none;" parent="1" vertex="1">
          <mxGeometry x="890" y="415" width="600" height="455" as="geometry" />
        </mxCell>
        <mxCell id="5iN4Q8ihnHbR1NjWREBR-55" value="" style="rounded=0;whiteSpace=wrap;html=1;fillColor=none;" parent="1" vertex="1">
          <mxGeometry x="1200" y="470" width="270" height="40" as="geometry" />
        </mxCell>
        <mxCell id="5iN4Q8ihnHbR1NjWREBR-43" value="" style="rounded=0;whiteSpace=wrap;html=1;fillColor=none;" parent="1" vertex="1">
          <mxGeometry x="920" y="570" width="280" height="40" as="geometry" />
        </mxCell>
        <mxCell id="5iN4Q8ihnHbR1NjWREBR-37" value="" style="rounded=0;whiteSpace=wrap;html=1;fillColor=none;" parent="1" vertex="1">
          <mxGeometry x="920" y="540" width="280" height="30" as="geometry" />
        </mxCell>
        <mxCell id="5iN4Q8ihnHbR1NjWREBR-36" value="" style="rounded=0;whiteSpace=wrap;html=1;fillColor=none;" parent="1" vertex="1">
          <mxGeometry x="920" y="510" width="280" height="30" as="geometry" />
        </mxCell>
        <mxCell id="5iN4Q8ihnHbR1NjWREBR-16" value="" style="rounded=0;whiteSpace=wrap;html=1;strokeColor=none;" parent="1" vertex="1">
          <mxGeometry x="140" y="70" width="500" height="282" as="geometry" />
        </mxCell>
        <mxCell id="5iN4Q8ihnHbR1NjWREBR-15" style="edgeStyle=orthogonalEdgeStyle;rounded=0;orthogonalLoop=1;jettySize=auto;html=1;dashed=1;startArrow=none;startFill=0;endArrow=block;endFill=0;" parent="1" source="5iN4Q8ihnHbR1NjWREBR-10" target="5iN4Q8ihnHbR1NjWREBR-5" edge="1">
          <mxGeometry relative="1" as="geometry" />
        </mxCell>
        <mxCell id="5iN4Q8ihnHbR1NjWREBR-13" style="edgeStyle=orthogonalEdgeStyle;rounded=0;orthogonalLoop=1;jettySize=auto;html=1;entryX=0.994;entryY=0.334;entryDx=0;entryDy=0;entryPerimeter=0;startArrow=diamond;startFill=0;endArrow=open;endFill=0;" parent="1" source="5iN4Q8ihnHbR1NjWREBR-7" target="5iN4Q8ihnHbR1NjWREBR-3" edge="1">
          <mxGeometry relative="1" as="geometry" />
        </mxCell>
        <mxCell id="5iN4Q8ihnHbR1NjWREBR-14" style="edgeStyle=orthogonalEdgeStyle;rounded=0;orthogonalLoop=1;jettySize=auto;html=1;entryX=0.548;entryY=1.027;entryDx=0;entryDy=0;entryPerimeter=0;startArrow=none;startFill=0;endArrow=block;endFill=0;dashed=1;" parent="1" source="5iN4Q8ihnHbR1NjWREBR-8" target="5iN4Q8ihnHbR1NjWREBR-6" edge="1">
          <mxGeometry relative="1" as="geometry" />
        </mxCell>
        <mxCell id="5iN4Q8ihnHbR1NjWREBR-3" value="&lt;&lt;Interface&gt;&gt;&#xa;Component&#xa;" style="swimlane;fontStyle=1;align=center;verticalAlign=top;childLayout=stackLayout;horizontal=1;startSize=40;horizontalStack=0;resizeParent=1;resizeParentMax=0;resizeLast=0;collapsible=1;marginBottom=0;" parent="1" vertex="1">
          <mxGeometry x="290" y="90" width="170" height="74" as="geometry" />
        </mxCell>
        <mxCell id="5iN4Q8ihnHbR1NjWREBR-5" value="" style="line;strokeWidth=1;fillColor=none;align=left;verticalAlign=middle;spacingTop=-1;spacingLeft=3;spacingRight=3;rotatable=0;labelPosition=right;points=[];portConstraint=eastwest;" parent="5iN4Q8ihnHbR1NjWREBR-3" vertex="1">
          <mxGeometry y="40" width="170" height="8" as="geometry" />
        </mxCell>
        <mxCell id="5iN4Q8ihnHbR1NjWREBR-6" value="+ getComponentSize(): long" style="text;strokeColor=none;fillColor=none;align=left;verticalAlign=top;spacingLeft=4;spacingRight=4;overflow=hidden;rotatable=0;points=[[0,0.5],[1,0.5]];portConstraint=eastwest;" parent="5iN4Q8ihnHbR1NjWREBR-3" vertex="1">
          <mxGeometry y="48" width="170" height="26" as="geometry" />
        </mxCell>
        <mxCell id="5iN4Q8ihnHbR1NjWREBR-10" value="FileComponent" style="swimlane;fontStyle=1;align=center;verticalAlign=top;childLayout=stackLayout;horizontal=1;startSize=30;horizontalStack=0;resizeParent=1;resizeParentMax=0;resizeLast=0;collapsible=1;marginBottom=0;" parent="1" vertex="1">
          <mxGeometry x="170" y="220" width="170" height="64" as="geometry" />
        </mxCell>
        <mxCell id="5iN4Q8ihnHbR1NjWREBR-11" value="" style="line;strokeWidth=1;fillColor=none;align=left;verticalAlign=middle;spacingTop=-1;spacingLeft=3;spacingRight=3;rotatable=0;labelPosition=right;points=[];portConstraint=eastwest;" parent="5iN4Q8ihnHbR1NjWREBR-10" vertex="1">
          <mxGeometry y="30" width="170" height="8" as="geometry" />
        </mxCell>
        <mxCell id="5iN4Q8ihnHbR1NjWREBR-12" value="+ getComponentSize(): long" style="text;strokeColor=none;fillColor=none;align=left;verticalAlign=top;spacingLeft=4;spacingRight=4;overflow=hidden;rotatable=0;points=[[0,0.5],[1,0.5]];portConstraint=eastwest;" parent="5iN4Q8ihnHbR1NjWREBR-10" vertex="1">
          <mxGeometry y="38" width="170" height="26" as="geometry" />
        </mxCell>
        <mxCell id="5iN4Q8ihnHbR1NjWREBR-7" value="DirComponent" style="swimlane;fontStyle=1;align=center;verticalAlign=top;childLayout=stackLayout;horizontal=1;startSize=30;horizontalStack=0;resizeParent=1;resizeParentMax=0;resizeLast=0;collapsible=1;marginBottom=0;" parent="1" vertex="1">
          <mxGeometry x="430" y="220" width="190" height="110" as="geometry" />
        </mxCell>
        <mxCell id="5iN4Q8ihnHbR1NjWREBR-8" value="" style="line;strokeWidth=1;fillColor=none;align=left;verticalAlign=middle;spacingTop=-1;spacingLeft=3;spacingRight=3;rotatable=0;labelPosition=right;points=[];portConstraint=eastwest;" parent="5iN4Q8ihnHbR1NjWREBR-7" vertex="1">
          <mxGeometry y="30" width="190" height="8" as="geometry" />
        </mxCell>
        <mxCell id="5iN4Q8ihnHbR1NjWREBR-9" value="+ getComponentSize(): long&#xa;+ addComponent(c:Component)&#xa;+ getComponent(location:int)&#xa;             :Component&#xa;&#xa;&#xa;" style="text;strokeColor=none;fillColor=none;align=left;verticalAlign=top;spacingLeft=4;spacingRight=4;overflow=hidden;rotatable=0;points=[[0,0.5],[1,0.5]];portConstraint=eastwest;" parent="5iN4Q8ihnHbR1NjWREBR-7" vertex="1">
          <mxGeometry y="38" width="190" height="72" as="geometry" />
        </mxCell>
        <mxCell id="5iN4Q8ihnHbR1NjWREBR-17" value="" style="rounded=0;whiteSpace=wrap;html=1;strokeColor=none;" parent="1" vertex="1">
          <mxGeometry x="140" y="380" width="500" height="282" as="geometry" />
        </mxCell>
        <mxCell id="5iN4Q8ihnHbR1NjWREBR-21" style="edgeStyle=orthogonalEdgeStyle;rounded=0;orthogonalLoop=1;jettySize=auto;html=1;startArrow=none;startFill=0;endArrow=block;endFill=0;" parent="1" source="5iN4Q8ihnHbR1NjWREBR-22" target="5iN4Q8ihnHbR1NjWREBR-19" edge="1">
          <mxGeometry relative="1" as="geometry" />
        </mxCell>
        <mxCell id="5iN4Q8ihnHbR1NjWREBR-25" style="edgeStyle=orthogonalEdgeStyle;rounded=0;orthogonalLoop=1;jettySize=auto;html=1;entryX=0.75;entryY=1;entryDx=0;entryDy=0;startArrow=diamond;startFill=0;endArrow=open;endFill=0;" parent="1" source="5iN4Q8ihnHbR1NjWREBR-26" target="5iN4Q8ihnHbR1NjWREBR-18" edge="1">
          <mxGeometry relative="1" as="geometry">
            <Array as="points">
              <mxPoint x="525" y="540" />
              <mxPoint x="455" y="540" />
            </Array>
          </mxGeometry>
        </mxCell>
        <mxCell id="5iN4Q8ihnHbR1NjWREBR-29" style="edgeStyle=orthogonalEdgeStyle;rounded=0;orthogonalLoop=1;jettySize=auto;html=1;entryX=0.548;entryY=1.027;entryDx=0;entryDy=0;entryPerimeter=0;startArrow=none;startFill=0;endArrow=block;endFill=0;" parent="1" source="5iN4Q8ihnHbR1NjWREBR-27" target="5iN4Q8ihnHbR1NjWREBR-20" edge="1">
          <mxGeometry relative="1" as="geometry">
            <Array as="points">
              <mxPoint x="410" y="584" />
              <mxPoint x="410" y="550" />
              <mxPoint x="411" y="550" />
              <mxPoint x="411" y="522" />
            </Array>
          </mxGeometry>
        </mxCell>
        <mxCell id="5iN4Q8ihnHbR1NjWREBR-18" value="Component&#xa;" style="swimlane;fontStyle=1;align=center;verticalAlign=top;childLayout=stackLayout;horizontal=1;startSize=30;horizontalStack=0;resizeParent=1;resizeParentMax=0;resizeLast=0;collapsible=1;marginBottom=0;" parent="1" vertex="1">
          <mxGeometry x="290" y="400" width="220" height="110" as="geometry" />
        </mxCell>
        <mxCell id="5iN4Q8ihnHbR1NjWREBR-19" value="" style="line;strokeWidth=1;fillColor=none;align=left;verticalAlign=middle;spacingTop=-1;spacingLeft=3;spacingRight=3;rotatable=0;labelPosition=right;points=[];portConstraint=eastwest;" parent="5iN4Q8ihnHbR1NjWREBR-18" vertex="1">
          <mxGeometry y="30" width="220" height="8" as="geometry" />
        </mxCell>
        <mxCell id="5iN4Q8ihnHbR1NjWREBR-20" value="+ getComponentSize(): long&#xa;+ addComponent(c:Component)&#xa;+ getComponent(location:int)&#xa;             :Component&#xa;&#xa;&#xa;&#xa;&#xa;" style="text;strokeColor=none;fillColor=none;align=left;verticalAlign=top;spacingLeft=4;spacingRight=4;overflow=hidden;rotatable=0;points=[[0,0.5],[1,0.5]];portConstraint=eastwest;" parent="5iN4Q8ihnHbR1NjWREBR-18" vertex="1">
          <mxGeometry y="38" width="220" height="72" as="geometry" />
        </mxCell>
        <mxCell id="5iN4Q8ihnHbR1NjWREBR-22" value="FileComponent" style="swimlane;fontStyle=1;align=center;verticalAlign=top;childLayout=stackLayout;horizontal=1;startSize=30;horizontalStack=0;resizeParent=1;resizeParentMax=0;resizeLast=0;collapsible=1;marginBottom=0;" parent="1" vertex="1">
          <mxGeometry x="170" y="550" width="170" height="64" as="geometry" />
        </mxCell>
        <mxCell id="5iN4Q8ihnHbR1NjWREBR-23" value="" style="line;strokeWidth=1;fillColor=none;align=left;verticalAlign=middle;spacingTop=-1;spacingLeft=3;spacingRight=3;rotatable=0;labelPosition=right;points=[];portConstraint=eastwest;" parent="5iN4Q8ihnHbR1NjWREBR-22" vertex="1">
          <mxGeometry y="30" width="170" height="8" as="geometry" />
        </mxCell>
        <mxCell id="5iN4Q8ihnHbR1NjWREBR-24" value="+ getComponentSize(): long" style="text;strokeColor=none;fillColor=none;align=left;verticalAlign=top;spacingLeft=4;spacingRight=4;overflow=hidden;rotatable=0;points=[[0,0.5],[1,0.5]];portConstraint=eastwest;" parent="5iN4Q8ihnHbR1NjWREBR-22" vertex="1">
          <mxGeometry y="38" width="170" height="26" as="geometry" />
        </mxCell>
        <mxCell id="5iN4Q8ihnHbR1NjWREBR-26" value="DirComponent" style="swimlane;fontStyle=1;align=center;verticalAlign=top;childLayout=stackLayout;horizontal=1;startSize=30;horizontalStack=0;resizeParent=1;resizeParentMax=0;resizeLast=0;collapsible=1;marginBottom=0;" parent="1" vertex="1">
          <mxGeometry x="430" y="550" width="190" height="110" as="geometry" />
        </mxCell>
        <mxCell id="5iN4Q8ihnHbR1NjWREBR-27" value="" style="line;strokeWidth=1;fillColor=none;align=left;verticalAlign=middle;spacingTop=-1;spacingLeft=3;spacingRight=3;rotatable=0;labelPosition=right;points=[];portConstraint=eastwest;" parent="5iN4Q8ihnHbR1NjWREBR-26" vertex="1">
          <mxGeometry y="30" width="190" height="8" as="geometry" />
        </mxCell>
        <mxCell id="5iN4Q8ihnHbR1NjWREBR-28" value="+ getComponentSize(): long&#xa;+ addComponent(c:Component)&#xa;+ getComponent(location:int)&#xa;             :Component&#xa;&#xa;&#xa;" style="text;strokeColor=none;fillColor=none;align=left;verticalAlign=top;spacingLeft=4;spacingRight=4;overflow=hidden;rotatable=0;points=[[0,0.5],[1,0.5]];portConstraint=eastwest;" parent="5iN4Q8ihnHbR1NjWREBR-26" vertex="1">
          <mxGeometry y="38" width="190" height="72" as="geometry" />
        </mxCell>
        <mxCell id="5iN4Q8ihnHbR1NjWREBR-31" value="&lt;font style=&quot;font-size: 18px&quot;&gt;Паттерн Decorator&lt;/font&gt;" style="text;html=1;align=center;verticalAlign=middle;resizable=0;points=[];autosize=1;" parent="1" vertex="1">
          <mxGeometry x="970" y="430" width="170" height="20" as="geometry" />
        </mxCell>
        <mxCell id="5iN4Q8ihnHbR1NjWREBR-32" value="&lt;div align=&quot;left&quot;&gt;Используется для расширения функционала &lt;br&gt;&lt;/div&gt;&lt;div align=&quot;left&quot;&gt;определенного объекта&lt;br&gt;&lt;/div&gt;" style="text;html=1;align=left;verticalAlign=middle;resizable=0;points=[];autosize=1;" parent="1" vertex="1">
          <mxGeometry x="925" y="475" width="260" height="30" as="geometry" />
        </mxCell>
        <mxCell id="5iN4Q8ihnHbR1NjWREBR-33" value="Не требует саб-классирования" style="text;html=1;align=left;verticalAlign=middle;resizable=0;points=[];autosize=1;" parent="1" vertex="1">
          <mxGeometry x="925" y="514" width="190" height="20" as="geometry" />
        </mxCell>
        <mxCell id="5iN4Q8ihnHbR1NjWREBR-34" value="Динамический" style="text;html=1;align=left;verticalAlign=middle;resizable=0;points=[];autosize=1;" parent="1" vertex="1">
          <mxGeometry x="925" y="544" width="90" height="20" as="geometry" />
        </mxCell>
        <mxCell id="5iN4Q8ihnHbR1NjWREBR-35" value="" style="rounded=0;whiteSpace=wrap;html=1;fillColor=none;" parent="1" vertex="1">
          <mxGeometry x="920" y="470" width="280" height="40" as="geometry" />
        </mxCell>
        <mxCell id="5iN4Q8ihnHbR1NjWREBR-38" value="" style="rounded=0;whiteSpace=wrap;html=1;fillColor=none;" parent="1" vertex="1">
          <mxGeometry x="920" y="650" width="280" height="30" as="geometry" />
        </mxCell>
        <mxCell id="5iN4Q8ihnHbR1NjWREBR-39" value="" style="rounded=0;whiteSpace=wrap;html=1;fillColor=none;" parent="1" vertex="1">
          <mxGeometry x="920" y="610" width="280" height="40" as="geometry" />
        </mxCell>
        <mxCell id="5iN4Q8ihnHbR1NjWREBR-40" value="Назначение обязанностей в рантайме" style="text;html=1;align=left;verticalAlign=middle;resizable=0;points=[];autosize=1;" parent="1" vertex="1">
          <mxGeometry x="925" y="580" width="220" height="20" as="geometry" />
        </mxCell>
        <mxCell id="5iN4Q8ihnHbR1NjWREBR-41" value="&lt;div&gt;Предотвращает распространение саб-классов&lt;/div&gt;&lt;div&gt;способствует уменьшению сложности. &lt;br&gt;&lt;/div&gt;" style="text;html=1;align=left;verticalAlign=middle;resizable=0;points=[];autosize=1;" parent="1" vertex="1">
          <mxGeometry x="925" y="614" width="270" height="30" as="geometry" />
        </mxCell>
        <mxCell id="5iN4Q8ihnHbR1NjWREBR-42" value="Более гибкий" style="text;html=1;align=left;verticalAlign=middle;resizable=0;points=[];autosize=1;" parent="1" vertex="1">
          <mxGeometry x="925" y="654" width="90" height="20" as="geometry" />
        </mxCell>
        <mxCell id="5iN4Q8ihnHbR1NjWREBR-44" value="" style="rounded=0;whiteSpace=wrap;html=1;fillColor=none;" parent="1" vertex="1">
          <mxGeometry x="920" y="680" width="280" height="100" as="geometry" />
        </mxCell>
        <mxCell id="5iN4Q8ihnHbR1NjWREBR-45" value="&lt;div&gt;Есть возможность добавления еще одного &lt;br&gt;&lt;/div&gt;&lt;div&gt;декоратора для того же объекта в одно&lt;/div&gt;&lt;div&gt;и то же время. &lt;br&gt;&lt;/div&gt;&lt;div&gt;Пользователь может выбирать в рантайме&lt;/div&gt;&lt;div&gt;какой функционал ему нужен с помощью&lt;/div&gt;&lt;div&gt;обращения к разным декораторам объекта. &lt;br&gt;&lt;/div&gt;" style="text;html=1;align=left;verticalAlign=middle;resizable=0;points=[];autosize=1;" parent="1" vertex="1">
          <mxGeometry x="925" y="683" width="260" height="90" as="geometry" />
        </mxCell>
        <mxCell id="5iN4Q8ihnHbR1NjWREBR-46" value="" style="rounded=0;whiteSpace=wrap;html=1;fillColor=none;" parent="1" vertex="1">
          <mxGeometry x="920" y="780" width="280" height="60" as="geometry" />
        </mxCell>
        <mxCell id="5iN4Q8ihnHbR1NjWREBR-47" value="&lt;div&gt;Легко добавить любую комбинацию &lt;br&gt;&lt;/div&gt;&lt;div&gt;функционалов. Тот же функционал может&lt;/div&gt;&lt;div&gt;быть добавлен несколько раз. &lt;br&gt;&lt;/div&gt;" style="text;html=1;align=left;verticalAlign=middle;resizable=0;points=[];autosize=1;" parent="1" vertex="1">
          <mxGeometry x="925" y="780" width="240" height="50" as="geometry" />
        </mxCell>
        <mxCell id="5iN4Q8ihnHbR1NjWREBR-48" value="" style="rounded=0;whiteSpace=wrap;html=1;fillColor=none;" parent="1" vertex="1">
          <mxGeometry x="1200" y="570" width="270" height="40" as="geometry" />
        </mxCell>
        <mxCell id="5iN4Q8ihnHbR1NjWREBR-49" value="" style="rounded=0;whiteSpace=wrap;html=1;fillColor=none;" parent="1" vertex="1">
          <mxGeometry x="1200" y="540" width="270" height="30" as="geometry" />
        </mxCell>
        <mxCell id="5iN4Q8ihnHbR1NjWREBR-50" value="" style="rounded=0;whiteSpace=wrap;html=1;fillColor=none;" parent="1" vertex="1">
          <mxGeometry x="1200" y="510" width="270" height="30" as="geometry" />
        </mxCell>
        <mxCell id="5iN4Q8ihnHbR1NjWREBR-51" value="&lt;font style=&quot;font-size: 18px&quot;&gt;Наследование&lt;/font&gt;" style="text;html=1;align=center;verticalAlign=middle;resizable=0;points=[];autosize=1;" parent="1" vertex="1">
          <mxGeometry x="1250" y="430" width="140" height="20" as="geometry" />
        </mxCell>
        <mxCell id="5iN4Q8ihnHbR1NjWREBR-52" value="&lt;div&gt;Используется для расширения функционала &lt;br&gt;&lt;/div&gt;&lt;div&gt;класса объекта. &lt;br&gt;&lt;/div&gt;" style="text;html=1;align=left;verticalAlign=middle;resizable=0;points=[];autosize=1;" parent="1" vertex="1">
          <mxGeometry x="1205" y="475" width="260" height="30" as="geometry" />
        </mxCell>
        <mxCell id="5iN4Q8ihnHbR1NjWREBR-53" value="Требует саб-классирования" style="text;html=1;align=left;verticalAlign=middle;resizable=0;points=[];autosize=1;" parent="1" vertex="1">
          <mxGeometry x="1205" y="514" width="170" height="20" as="geometry" />
        </mxCell>
        <mxCell id="5iN4Q8ihnHbR1NjWREBR-54" value="Статический" style="text;html=1;align=left;verticalAlign=middle;resizable=0;points=[];autosize=1;" parent="1" vertex="1">
          <mxGeometry x="1205" y="544" width="90" height="20" as="geometry" />
        </mxCell>
        <mxCell id="5iN4Q8ihnHbR1NjWREBR-56" value="" style="rounded=0;whiteSpace=wrap;html=1;fillColor=none;" parent="1" vertex="1">
          <mxGeometry x="1200" y="650" width="270" height="30" as="geometry" />
        </mxCell>
        <mxCell id="5iN4Q8ihnHbR1NjWREBR-57" value="" style="rounded=0;whiteSpace=wrap;html=1;fillColor=none;" parent="1" vertex="1">
          <mxGeometry x="1200" y="610" width="270" height="40" as="geometry" />
        </mxCell>
        <mxCell id="5iN4Q8ihnHbR1NjWREBR-58" value="&lt;div&gt;Назначение обязанностей на стадии &lt;br&gt;&lt;/div&gt;&lt;div&gt;компиляции&lt;/div&gt;" style="text;html=1;align=left;verticalAlign=middle;resizable=0;points=[];autosize=1;" parent="1" vertex="1">
          <mxGeometry x="1205" y="574" width="220" height="30" as="geometry" />
        </mxCell>
        <mxCell id="5iN4Q8ihnHbR1NjWREBR-59" value="Ведет к распространению саб-классов" style="text;html=1;align=left;verticalAlign=middle;resizable=0;points=[];autosize=1;" parent="1" vertex="1">
          <mxGeometry x="1205" y="619" width="230" height="20" as="geometry" />
        </mxCell>
        <mxCell id="5iN4Q8ihnHbR1NjWREBR-60" value="Менее гибкий" style="text;html=1;align=left;verticalAlign=middle;resizable=0;points=[];autosize=1;" parent="1" vertex="1">
          <mxGeometry x="1205" y="654" width="90" height="20" as="geometry" />
        </mxCell>
        <mxCell id="5iN4Q8ihnHbR1NjWREBR-61" value="" style="rounded=0;whiteSpace=wrap;html=1;fillColor=none;" parent="1" vertex="1">
          <mxGeometry x="1200" y="680" width="270" height="100" as="geometry" />
        </mxCell>
        <mxCell id="5iN4Q8ihnHbR1NjWREBR-62" value="&lt;div&gt;Требует саб-классы для всех возможных &lt;br&gt;&lt;/div&gt;&lt;div&gt;вариаций дополнительного функционала, &lt;br&gt;&lt;/div&gt;&lt;div&gt;которые нужны клиенту.&amp;nbsp; &lt;br&gt;&lt;/div&gt;" style="text;html=1;align=left;verticalAlign=middle;resizable=0;points=[];autosize=1;" parent="1" vertex="1">
          <mxGeometry x="1205" y="680" width="240" height="50" as="geometry" />
        </mxCell>
        <mxCell id="5iN4Q8ihnHbR1NjWREBR-63" value="" style="rounded=0;whiteSpace=wrap;html=1;fillColor=none;" parent="1" vertex="1">
          <mxGeometry x="1200" y="780" width="270" height="60" as="geometry" />
        </mxCell>
        <mxCell id="5iN4Q8ihnHbR1NjWREBR-64" value="Сложно" style="text;html=1;align=left;verticalAlign=middle;resizable=0;points=[];autosize=1;" parent="1" vertex="1">
          <mxGeometry x="1205" y="783" width="60" height="20" as="geometry" />
        </mxCell>
        <mxCell id="aFYoz8bnzRgBIIWQJFUe-56" value="" style="group" vertex="1" connectable="0" parent="1">
          <mxGeometry x="-180" y="956.3414634146342" width="1009.9999999999999" height="57.560975609756106" as="geometry" />
        </mxCell>
        <mxCell id="aFYoz8bnzRgBIIWQJFUe-22" value="" style="rounded=0;whiteSpace=wrap;html=1;fillColor=none;" vertex="1" parent="aFYoz8bnzRgBIIWQJFUe-56">
          <mxGeometry x="504.99999999999994" width="504.99999999999994" height="57.560975609756106" as="geometry" />
        </mxCell>
        <mxCell id="aFYoz8bnzRgBIIWQJFUe-48" value="" style="rounded=0;whiteSpace=wrap;html=1;fillColor=none;" vertex="1" parent="aFYoz8bnzRgBIIWQJFUe-56">
          <mxGeometry width="504.99999999999994" height="57.560975609756106" as="geometry" />
        </mxCell>
        <mxCell id="aFYoz8bnzRgBIIWQJFUe-55" value="" style="group" vertex="1" connectable="0" parent="1">
          <mxGeometry x="-180" y="1013.9024390243902" width="1009.9999999999999" height="50.36585365853659" as="geometry" />
        </mxCell>
        <mxCell id="aFYoz8bnzRgBIIWQJFUe-21" value="" style="rounded=0;whiteSpace=wrap;html=1;fillColor=none;" vertex="1" parent="aFYoz8bnzRgBIIWQJFUe-55">
          <mxGeometry x="504.99999999999994" width="504.99999999999994" height="50.36585365853659" as="geometry" />
        </mxCell>
        <mxCell id="aFYoz8bnzRgBIIWQJFUe-47" value="" style="rounded=0;whiteSpace=wrap;html=1;fillColor=none;" vertex="1" parent="aFYoz8bnzRgBIIWQJFUe-55">
          <mxGeometry width="504.99999999999994" height="50.36585365853659" as="geometry" />
        </mxCell>
        <mxCell id="aFYoz8bnzRgBIIWQJFUe-34" value="" style="rounded=0;whiteSpace=wrap;html=1;fillColor=none;" vertex="1" parent="1">
          <mxGeometry x="324.99999999999994" y="1402.439024390244" width="504.99999999999994" height="57.560975609756106" as="geometry" />
        </mxCell>
        <mxCell id="aFYoz8bnzRgBIIWQJFUe-28" value="" style="rounded=0;whiteSpace=wrap;html=1;fillColor=none;" vertex="1" parent="1">
          <mxGeometry x="324.99999999999994" y="1121.829268292683" width="504.99999999999994" height="93.53658536585365" as="geometry" />
        </mxCell>
        <mxCell id="aFYoz8bnzRgBIIWQJFUe-27" value="" style="rounded=0;whiteSpace=wrap;html=1;fillColor=none;" vertex="1" parent="1">
          <mxGeometry x="324.99999999999994" y="1215.3658536585367" width="504.99999999999994" height="43.17073170731708" as="geometry" />
        </mxCell>
        <mxCell id="aFYoz8bnzRgBIIWQJFUe-32" value="" style="rounded=0;whiteSpace=wrap;html=1;fillColor=none;" vertex="1" parent="1">
          <mxGeometry x="324.99999999999994" y="1258.5365853658536" width="504.99999999999994" height="143.90243902439025" as="geometry" />
        </mxCell>
        <mxCell id="aFYoz8bnzRgBIIWQJFUe-49" value="" style="rounded=0;whiteSpace=wrap;html=1;fillColor=none;" vertex="1" parent="1">
          <mxGeometry x="-180" y="1215.3658536585367" width="504.99999999999994" height="43.17073170731708" as="geometry" />
        </mxCell>
        <mxCell id="aFYoz8bnzRgBIIWQJFUe-51" value="" style="rounded=0;whiteSpace=wrap;html=1;fillColor=none;" vertex="1" parent="1">
          <mxGeometry x="-180" y="1258.5365853658536" width="504.99999999999994" height="143.90243902439025" as="geometry" />
        </mxCell>
        <mxCell id="aFYoz8bnzRgBIIWQJFUe-20" value="" style="rounded=0;whiteSpace=wrap;html=1;fillColor=none;" vertex="1" parent="1">
          <mxGeometry x="324.99999999999994" y="1064.2682926829268" width="504.99999999999994" height="57.560975609756106" as="geometry" />
        </mxCell>
        <mxCell id="aFYoz8bnzRgBIIWQJFUe-46" value="" style="rounded=0;whiteSpace=wrap;html=1;fillColor=none;" vertex="1" parent="1">
          <mxGeometry x="-180" y="1064.2682926829268" width="504.99999999999994" height="57.560975609756106" as="geometry" />
        </mxCell>
        <mxCell id="aFYoz8bnzRgBIIWQJFUe-2" value="" style="rounded=0;whiteSpace=wrap;html=1;fillColor=none;" vertex="1" parent="1">
          <mxGeometry x="324.99999999999994" y="920.3658536585366" width="504.99999999999994" height="35.97560975609756" as="geometry" />
        </mxCell>
        <mxCell id="aFYoz8bnzRgBIIWQJFUe-45" value="" style="rounded=0;whiteSpace=wrap;html=1;fillColor=none;" vertex="1" parent="1">
          <mxGeometry x="-180" y="920.3658536585366" width="504.99999999999994" height="35.97560975609756" as="geometry" />
        </mxCell>
        <mxCell id="aFYoz8bnzRgBIIWQJFUe-6" value="&lt;font style=&quot;font-size: 18px&quot;&gt;Тип Proxy&lt;/font&gt;" style="text;html=1;align=center;verticalAlign=middle;resizable=0;points=[];autosize=1;" vertex="1" parent="1">
          <mxGeometry x="-11.666666666666657" y="870" width="100" height="20" as="geometry" />
        </mxCell>
        <mxCell id="aFYoz8bnzRgBIIWQJFUe-23" value="&lt;font style=&quot;font-size: 18px&quot;&gt;Назначение&lt;/font&gt;" style="text;html=1;align=center;verticalAlign=middle;resizable=0;points=[];autosize=1;" vertex="1" parent="1">
          <mxGeometry x="506.28205128205127" y="870" width="120" height="20" as="geometry" />
        </mxCell>
        <mxCell id="aFYoz8bnzRgBIIWQJFUe-24" value="Для предоставления доступа к удаленно размещенному объекту" style="text;html=1;align=left;verticalAlign=middle;resizable=0;points=[];autosize=1;fontSize=15;" vertex="1" parent="1">
          <mxGeometry x="331.474358974359" y="926.2439024390244" width="470" height="20" as="geometry" />
        </mxCell>
        <mxCell id="aFYoz8bnzRgBIIWQJFUe-25" value="&lt;div style=&quot;font-size: 15px;&quot;&gt;Для предоставление функционала создающего объект по запросу, &lt;br style=&quot;font-size: 15px;&quot;&gt;&lt;/div&gt;&lt;div style=&quot;font-size: 15px;&quot;&gt;в случае если объект очень тяжелый. &lt;br style=&quot;font-size: 15px;&quot;&gt;&lt;/div&gt;" style="text;html=1;align=left;verticalAlign=middle;resizable=0;points=[];autosize=1;fontSize=15;" vertex="1" parent="1">
          <mxGeometry x="331.474358974359" y="961.0975609756098" width="480" height="40" as="geometry" />
        </mxCell>
        <mxCell id="aFYoz8bnzRgBIIWQJFUe-26" value="&lt;div style=&quot;font-size: 15px;&quot;&gt;Для предоставления функционала позволяющего сохранять &lt;br style=&quot;font-size: 15px;&quot;&gt;&lt;/div&gt;&lt;div style=&quot;font-size: 15px;&quot;&gt;результаты часто выполняемых операций. &lt;br style=&quot;font-size: 15px;&quot;&gt;&lt;/div&gt;" style="text;html=1;align=left;verticalAlign=middle;resizable=0;points=[];autosize=1;fontSize=15;" vertex="1" parent="1">
          <mxGeometry x="331.474358974359" y="1015.3414634146342" width="440" height="40" as="geometry" />
        </mxCell>
        <mxCell id="aFYoz8bnzRgBIIWQJFUe-29" value="&lt;div style=&quot;font-size: 15px;&quot;&gt;Для защиты целевых клиентов от нежелательных клиентов. А &lt;br style=&quot;font-size: 15px;&quot;&gt;&lt;/div&gt;&lt;div style=&quot;font-size: 15px;&quot;&gt;также наоборот, для защиты клиентов от целевых объектов.&lt;br style=&quot;font-size: 15px;&quot;&gt; &lt;/div&gt;" style="text;html=1;align=left;verticalAlign=middle;resizable=0;points=[];autosize=1;fontSize=15;" vertex="1" parent="1">
          <mxGeometry x="331.474358974359" y="1069.0243902439024" width="450" height="40" as="geometry" />
        </mxCell>
        <mxCell id="aFYoz8bnzRgBIIWQJFUe-30" value="&lt;div style=&quot;font-size: 15px;&quot;&gt;Для предоставления ограничивающего доступ функционала. &lt;br style=&quot;font-size: 15px;&quot;&gt;&lt;/div&gt;&lt;div style=&quot;font-size: 15px;&quot;&gt;Работает на основании уровней доступа для разных клиентов. &lt;br style=&quot;font-size: 15px;&quot;&gt;&lt;/div&gt;&lt;div style=&quot;font-size: 15px;&quot;&gt;В случае, если у клиента нет прав, он не может получить доступ к &lt;br style=&quot;font-size: 15px;&quot;&gt;&lt;/div&gt;&lt;div style=&quot;font-size: 15px;&quot;&gt;определенному методу целевого объекта. &lt;br style=&quot;font-size: 15px;&quot;&gt;&lt;/div&gt;" style="text;html=1;align=left;verticalAlign=middle;resizable=0;points=[];autosize=1;fontSize=15;" vertex="1" parent="1">
          <mxGeometry x="331.474358974359" y="1124.7073170731708" width="480" height="80" as="geometry" />
        </mxCell>
        <mxCell id="aFYoz8bnzRgBIIWQJFUe-31" value="&lt;div style=&quot;font-size: 15px;&quot;&gt;Для предоставления безопасного concurrent доступа к целевому &lt;br style=&quot;font-size: 15px;&quot;&gt;&lt;/div&gt;&lt;div style=&quot;font-size: 15px;&quot;&gt;объекту в условиях многопоточности. &lt;br style=&quot;font-size: 15px;&quot;&gt;&lt;/div&gt;" style="text;html=1;align=left;verticalAlign=middle;resizable=0;points=[];autosize=1;fontSize=15;" vertex="1" parent="1">
          <mxGeometry x="331.474358974359" y="1213.9268292682927" width="470" height="40" as="geometry" />
        </mxCell>
        <mxCell id="aFYoz8bnzRgBIIWQJFUe-33" value="&lt;div style=&quot;font-size: 15px;&quot;&gt;Для предоставления функционала предотвращающего случайные &lt;br style=&quot;font-size: 15px;&quot;&gt;&lt;/div&gt;&lt;div style=&quot;font-size: 15px;&quot;&gt;попытки удаления или отключения ресурсов в то время когда&lt;/div&gt;&lt;div style=&quot;font-size: 15px;&quot;&gt;другие клиенты в данный момент пользуются этими ресурсами. &lt;br style=&quot;font-size: 15px;&quot;&gt;&lt;/div&gt;&lt;div style=&quot;font-size: 15px;&quot;&gt;Для обеспечения этой возможности, Прокси содержит счетчик &lt;br style=&quot;font-size: 15px;&quot;&gt;&lt;/div&gt;&lt;div style=&quot;font-size: 15px;&quot;&gt;количества ссылок на целевой объект. Удаление или выключение &lt;br style=&quot;font-size: 15px;&quot;&gt;&lt;/div&gt;&lt;div style=&quot;font-size: 15px;&quot;&gt;происходит только если на целевой ресурс нет ссылок. &lt;br style=&quot;font-size: 15px;&quot;&gt;&lt;/div&gt;" style="text;html=1;align=left;verticalAlign=middle;resizable=0;points=[];autosize=1;fontSize=15;" vertex="1" parent="1">
          <mxGeometry x="331.474358974359" y="1264.4146341463415" width="480" height="110" as="geometry" />
        </mxCell>
        <mxCell id="aFYoz8bnzRgBIIWQJFUe-35" value="&lt;div style=&quot;font-size: 15px;&quot;&gt;Для предоставления, своего рода, механизма аудита перед &lt;br style=&quot;font-size: 15px;&quot;&gt;&lt;/div&gt;&lt;div style=&quot;font-size: 15px;&quot;&gt;выполнением метода в целевом объекте. &lt;br style=&quot;font-size: 15px;&quot;&gt;&lt;/div&gt;" style="text;html=1;align=left;verticalAlign=middle;resizable=0;points=[];autosize=1;fontSize=15;" vertex="1" parent="1">
          <mxGeometry x="331.474358974359" y="1406.7560975609758" width="430" height="40" as="geometry" />
        </mxCell>
        <mxCell id="aFYoz8bnzRgBIIWQJFUe-37" value="Remote Proxy" style="text;html=1;align=left;verticalAlign=middle;resizable=0;points=[];autosize=1;fontSize=15;" vertex="1" parent="1">
          <mxGeometry x="-173.52564102564102" y="927.2439024390244" width="110" height="20" as="geometry" />
        </mxCell>
        <mxCell id="aFYoz8bnzRgBIIWQJFUe-38" value="Virtual Proxy" style="text;html=1;align=left;verticalAlign=middle;resizable=0;points=[];autosize=1;fontSize=15;" vertex="1" parent="1">
          <mxGeometry x="-173.52564102564102" y="973.2926829268292" width="100" height="20" as="geometry" />
        </mxCell>
        <mxCell id="aFYoz8bnzRgBIIWQJFUe-39" value="Cache Proxy/Server Proxy" style="text;html=1;align=left;verticalAlign=middle;resizable=0;points=[];autosize=1;fontSize=15;" vertex="1" parent="1">
          <mxGeometry x="-173.52564102564102" y="1026.5365853658536" width="190" height="20" as="geometry" />
        </mxCell>
        <mxCell id="aFYoz8bnzRgBIIWQJFUe-40" value="Firewall Proxy" style="text;html=1;align=left;verticalAlign=middle;resizable=0;points=[];autosize=1;fontSize=15;" vertex="1" parent="1">
          <mxGeometry x="-173.52564102564102" y="1081.219512195122" width="110" height="20" as="geometry" />
        </mxCell>
        <mxCell id="aFYoz8bnzRgBIIWQJFUe-41" value="Protection Proxy" style="text;html=1;align=left;verticalAlign=middle;resizable=0;points=[];autosize=1;fontSize=15;" vertex="1" parent="1">
          <mxGeometry x="-173.52564102564102" y="1138.780487804878" width="130" height="20" as="geometry" />
        </mxCell>
        <mxCell id="aFYoz8bnzRgBIIWQJFUe-42" value="Synchronization Proxy" style="text;html=1;align=left;verticalAlign=middle;resizable=0;points=[];autosize=1;fontSize=15;" vertex="1" parent="1">
          <mxGeometry x="-173.52564102564102" y="1225.121951219512" width="160" height="20" as="geometry" />
        </mxCell>
        <mxCell id="aFYoz8bnzRgBIIWQJFUe-43" value="Smart Reference Proxy" style="text;html=1;align=left;verticalAlign=middle;resizable=0;points=[];autosize=1;fontSize=15;" vertex="1" parent="1">
          <mxGeometry x="-173.52564102564102" y="1284.121951219512" width="170" height="20" as="geometry" />
        </mxCell>
        <mxCell id="aFYoz8bnzRgBIIWQJFUe-44" value="Counting Proxy" style="text;html=1;align=left;verticalAlign=middle;resizable=0;points=[];autosize=1;fontSize=15;" vertex="1" parent="1">
          <mxGeometry x="-173.52564102564102" y="1410.7560975609758" width="120" height="20" as="geometry" />
        </mxCell>
        <mxCell id="aFYoz8bnzRgBIIWQJFUe-50" value="" style="rounded=0;whiteSpace=wrap;html=1;fillColor=none;" vertex="1" parent="1">
          <mxGeometry x="-180" y="1121.829268292683" width="504.99999999999994" height="93.53658536585365" as="geometry" />
        </mxCell>
        <mxCell id="aFYoz8bnzRgBIIWQJFUe-52" value="" style="rounded=0;whiteSpace=wrap;html=1;fillColor=none;" vertex="1" parent="1">
          <mxGeometry x="-180" y="1402.439024390244" width="504.99999999999994" height="57.560975609756106" as="geometry" />
        </mxCell>
      </root>
    </mxGraphModel>
  </diagram>
</mxfile>
